<mxfile host="app.diagrams.net" modified="2023-08-26T09:09:57.471Z" agent="Mozilla/5.0 (X11; Linux x86_64; rv:109.0) Gecko/20100101 Firefox/115.0" etag="wokSpsgz4y_ge3fkopo1" version="21.6.7" type="github">
  <diagram name="Page-1" id="sKxwIcgGZoeTF_EywECW">
    <mxGraphModel dx="819" dy="445" grid="1" gridSize="10" guides="1" tooltips="1" connect="1" arrows="1" fold="1" page="1" pageScale="1" pageWidth="850" pageHeight="1100" math="0" shadow="0">
      <root>
        <mxCell id="0" />
        <mxCell id="1" parent="0" />
        <mxCell id="oqTFkCxVo-Yx_gstU844-12" style="edgeStyle=orthogonalEdgeStyle;rounded=0;orthogonalLoop=1;jettySize=auto;html=1;entryX=0;entryY=0.5;entryDx=0;entryDy=0;" edge="1" parent="1" source="oqTFkCxVo-Yx_gstU844-2" target="oqTFkCxVo-Yx_gstU844-3">
          <mxGeometry relative="1" as="geometry" />
        </mxCell>
        <mxCell id="oqTFkCxVo-Yx_gstU844-2" value="" style="ellipse;whiteSpace=wrap;html=1;aspect=fixed;fillColor=#000000;" vertex="1" parent="1">
          <mxGeometry x="20" y="180" width="20" height="20" as="geometry" />
        </mxCell>
        <mxCell id="oqTFkCxVo-Yx_gstU844-13" style="edgeStyle=orthogonalEdgeStyle;rounded=0;orthogonalLoop=1;jettySize=auto;html=1;" edge="1" parent="1" source="oqTFkCxVo-Yx_gstU844-3" target="oqTFkCxVo-Yx_gstU844-4">
          <mxGeometry relative="1" as="geometry" />
        </mxCell>
        <mxCell id="oqTFkCxVo-Yx_gstU844-3" value="IDLE" style="rounded=1;whiteSpace=wrap;html=1;" vertex="1" parent="1">
          <mxGeometry x="120" y="175" width="80" height="30" as="geometry" />
        </mxCell>
        <mxCell id="oqTFkCxVo-Yx_gstU844-14" style="edgeStyle=orthogonalEdgeStyle;rounded=0;orthogonalLoop=1;jettySize=auto;html=1;exitX=0.5;exitY=1;exitDx=0;exitDy=0;entryX=0.5;entryY=0;entryDx=0;entryDy=0;" edge="1" parent="1" source="oqTFkCxVo-Yx_gstU844-4" target="oqTFkCxVo-Yx_gstU844-7">
          <mxGeometry relative="1" as="geometry" />
        </mxCell>
        <mxCell id="oqTFkCxVo-Yx_gstU844-32" style="edgeStyle=orthogonalEdgeStyle;rounded=0;orthogonalLoop=1;jettySize=auto;html=1;" edge="1" parent="1" source="oqTFkCxVo-Yx_gstU844-4" target="oqTFkCxVo-Yx_gstU844-31">
          <mxGeometry relative="1" as="geometry" />
        </mxCell>
        <mxCell id="oqTFkCxVo-Yx_gstU844-36" value="&lt;font style=&quot;font-size: 7px;&quot;&gt;After 60 seconds if there was no answer&lt;/font&gt;" style="edgeLabel;html=1;align=center;verticalAlign=middle;resizable=0;points=[];" vertex="1" connectable="0" parent="oqTFkCxVo-Yx_gstU844-32">
          <mxGeometry x="-0.4774" relative="1" as="geometry">
            <mxPoint as="offset" />
          </mxGeometry>
        </mxCell>
        <mxCell id="oqTFkCxVo-Yx_gstU844-4" value="SendStore" style="rounded=1;whiteSpace=wrap;html=1;" vertex="1" parent="1">
          <mxGeometry x="280" y="175" width="80" height="30" as="geometry" />
        </mxCell>
        <mxCell id="oqTFkCxVo-Yx_gstU844-23" style="edgeStyle=orthogonalEdgeStyle;rounded=0;orthogonalLoop=1;jettySize=auto;html=1;entryX=0.5;entryY=1;entryDx=0;entryDy=0;" edge="1" parent="1" source="oqTFkCxVo-Yx_gstU844-5" target="oqTFkCxVo-Yx_gstU844-3">
          <mxGeometry relative="1" as="geometry">
            <Array as="points">
              <mxPoint x="160" y="270" />
            </Array>
          </mxGeometry>
        </mxCell>
        <mxCell id="oqTFkCxVo-Yx_gstU844-5" value="Rejected" style="rounded=1;whiteSpace=wrap;html=1;" vertex="1" parent="1">
          <mxGeometry x="200" y="260" width="80" height="30" as="geometry" />
        </mxCell>
        <mxCell id="oqTFkCxVo-Yx_gstU844-17" style="edgeStyle=orthogonalEdgeStyle;rounded=0;orthogonalLoop=1;jettySize=auto;html=1;entryX=0.5;entryY=0;entryDx=0;entryDy=0;" edge="1" parent="1" source="oqTFkCxVo-Yx_gstU844-6" target="oqTFkCxVo-Yx_gstU844-8">
          <mxGeometry relative="1" as="geometry" />
        </mxCell>
        <mxCell id="oqTFkCxVo-Yx_gstU844-30" value="&lt;font style=&quot;font-size: 8px;&quot;&gt;After &lt;b&gt;DT &lt;/b&gt;milliseconds&lt;/font&gt;" style="edgeLabel;html=1;align=center;verticalAlign=middle;resizable=0;points=[];" vertex="1" connectable="0" parent="oqTFkCxVo-Yx_gstU844-17">
          <mxGeometry x="-0.0643" relative="1" as="geometry">
            <mxPoint as="offset" />
          </mxGeometry>
        </mxCell>
        <mxCell id="oqTFkCxVo-Yx_gstU844-6" value="Accepted" style="rounded=1;whiteSpace=wrap;html=1;" vertex="1" parent="1">
          <mxGeometry x="360" y="260" width="80" height="30" as="geometry" />
        </mxCell>
        <mxCell id="oqTFkCxVo-Yx_gstU844-15" style="edgeStyle=orthogonalEdgeStyle;rounded=0;orthogonalLoop=1;jettySize=auto;html=1;exitX=1;exitY=0.5;exitDx=0;exitDy=0;entryX=0.5;entryY=0;entryDx=0;entryDy=0;" edge="1" parent="1" source="oqTFkCxVo-Yx_gstU844-7" target="oqTFkCxVo-Yx_gstU844-6">
          <mxGeometry relative="1" as="geometry" />
        </mxCell>
        <mxCell id="oqTFkCxVo-Yx_gstU844-27" value="&lt;font style=&quot;font-size: 8px;&quot;&gt;StoreAccepted&lt;/font&gt;" style="edgeLabel;html=1;align=center;verticalAlign=middle;resizable=0;points=[];" vertex="1" connectable="0" parent="oqTFkCxVo-Yx_gstU844-15">
          <mxGeometry x="-0.2984" y="2" relative="1" as="geometry">
            <mxPoint as="offset" />
          </mxGeometry>
        </mxCell>
        <mxCell id="oqTFkCxVo-Yx_gstU844-19" style="edgeStyle=orthogonalEdgeStyle;rounded=0;orthogonalLoop=1;jettySize=auto;html=1;entryX=0.5;entryY=0;entryDx=0;entryDy=0;" edge="1" parent="1" source="oqTFkCxVo-Yx_gstU844-7" target="oqTFkCxVo-Yx_gstU844-5">
          <mxGeometry relative="1" as="geometry" />
        </mxCell>
        <mxCell id="oqTFkCxVo-Yx_gstU844-26" value="&lt;font style=&quot;font-size: 8px;&quot;&gt;StoreRejected&lt;/font&gt;" style="edgeLabel;html=1;align=center;verticalAlign=middle;resizable=0;points=[];" vertex="1" connectable="0" parent="oqTFkCxVo-Yx_gstU844-19">
          <mxGeometry x="-0.3166" relative="1" as="geometry">
            <mxPoint as="offset" />
          </mxGeometry>
        </mxCell>
        <mxCell id="oqTFkCxVo-Yx_gstU844-7" value="" style="rhombus;whiteSpace=wrap;html=1;" vertex="1" parent="1">
          <mxGeometry x="310" y="230" width="20" height="20" as="geometry" />
        </mxCell>
        <mxCell id="oqTFkCxVo-Yx_gstU844-18" style="edgeStyle=orthogonalEdgeStyle;rounded=0;orthogonalLoop=1;jettySize=auto;html=1;entryX=0.5;entryY=0;entryDx=0;entryDy=0;" edge="1" parent="1" source="oqTFkCxVo-Yx_gstU844-8" target="oqTFkCxVo-Yx_gstU844-9">
          <mxGeometry relative="1" as="geometry" />
        </mxCell>
        <mxCell id="oqTFkCxVo-Yx_gstU844-33" style="edgeStyle=orthogonalEdgeStyle;rounded=0;orthogonalLoop=1;jettySize=auto;html=1;exitX=1;exitY=0.5;exitDx=0;exitDy=0;entryX=0.5;entryY=1;entryDx=0;entryDy=0;" edge="1" parent="1" source="oqTFkCxVo-Yx_gstU844-8" target="oqTFkCxVo-Yx_gstU844-31">
          <mxGeometry relative="1" as="geometry">
            <Array as="points">
              <mxPoint x="440" y="350" />
              <mxPoint x="610" y="350" />
            </Array>
          </mxGeometry>
        </mxCell>
        <mxCell id="oqTFkCxVo-Yx_gstU844-37" value="&lt;font style=&quot;font-size: 7px;&quot;&gt;After 60 seconds if there was no answer&lt;/font&gt;" style="edgeLabel;html=1;align=center;verticalAlign=middle;resizable=0;points=[];" vertex="1" connectable="0" parent="oqTFkCxVo-Yx_gstU844-33">
          <mxGeometry x="-0.2791" relative="1" as="geometry">
            <mxPoint as="offset" />
          </mxGeometry>
        </mxCell>
        <mxCell id="oqTFkCxVo-Yx_gstU844-8" value="SendTicket" style="rounded=1;whiteSpace=wrap;html=1;" vertex="1" parent="1">
          <mxGeometry x="360" y="330" width="80" height="30" as="geometry" />
        </mxCell>
        <mxCell id="oqTFkCxVo-Yx_gstU844-20" style="edgeStyle=orthogonalEdgeStyle;rounded=0;orthogonalLoop=1;jettySize=auto;html=1;exitX=1;exitY=0.5;exitDx=0;exitDy=0;entryX=0.5;entryY=0;entryDx=0;entryDy=0;" edge="1" parent="1" source="oqTFkCxVo-Yx_gstU844-9" target="oqTFkCxVo-Yx_gstU844-11">
          <mxGeometry relative="1" as="geometry" />
        </mxCell>
        <mxCell id="oqTFkCxVo-Yx_gstU844-29" value="&lt;font style=&quot;font-size: 8px;&quot;&gt;TicketValid&lt;/font&gt;" style="edgeLabel;html=1;align=center;verticalAlign=middle;resizable=0;points=[];" vertex="1" connectable="0" parent="oqTFkCxVo-Yx_gstU844-20">
          <mxGeometry x="-0.5091" relative="1" as="geometry">
            <mxPoint as="offset" />
          </mxGeometry>
        </mxCell>
        <mxCell id="oqTFkCxVo-Yx_gstU844-21" style="edgeStyle=orthogonalEdgeStyle;rounded=0;orthogonalLoop=1;jettySize=auto;html=1;exitX=0;exitY=0.5;exitDx=0;exitDy=0;" edge="1" parent="1" source="oqTFkCxVo-Yx_gstU844-9" target="oqTFkCxVo-Yx_gstU844-10">
          <mxGeometry relative="1" as="geometry" />
        </mxCell>
        <mxCell id="oqTFkCxVo-Yx_gstU844-28" value="&lt;font style=&quot;font-size: 8px;&quot;&gt;TicketExpired&lt;/font&gt;" style="edgeLabel;html=1;align=center;verticalAlign=middle;resizable=0;points=[];" vertex="1" connectable="0" parent="oqTFkCxVo-Yx_gstU844-21">
          <mxGeometry x="-0.0611" relative="1" as="geometry">
            <mxPoint as="offset" />
          </mxGeometry>
        </mxCell>
        <mxCell id="oqTFkCxVo-Yx_gstU844-9" value="" style="rhombus;whiteSpace=wrap;html=1;" vertex="1" parent="1">
          <mxGeometry x="390" y="390" width="20" height="20" as="geometry" />
        </mxCell>
        <mxCell id="oqTFkCxVo-Yx_gstU844-24" style="edgeStyle=orthogonalEdgeStyle;rounded=0;orthogonalLoop=1;jettySize=auto;html=1;entryX=0.25;entryY=1;entryDx=0;entryDy=0;" edge="1" parent="1" source="oqTFkCxVo-Yx_gstU844-10" target="oqTFkCxVo-Yx_gstU844-3">
          <mxGeometry relative="1" as="geometry" />
        </mxCell>
        <mxCell id="oqTFkCxVo-Yx_gstU844-10" value="&lt;div&gt;handleTicketExpired&lt;/div&gt;" style="rounded=1;whiteSpace=wrap;html=1;" vertex="1" parent="1">
          <mxGeometry x="240" y="440" width="120" height="30" as="geometry" />
        </mxCell>
        <mxCell id="oqTFkCxVo-Yx_gstU844-25" style="edgeStyle=orthogonalEdgeStyle;rounded=0;orthogonalLoop=1;jettySize=auto;html=1;entryX=0;entryY=1;entryDx=0;entryDy=0;" edge="1" parent="1" source="oqTFkCxVo-Yx_gstU844-11" target="oqTFkCxVo-Yx_gstU844-3">
          <mxGeometry relative="1" as="geometry">
            <Array as="points">
              <mxPoint x="480" y="500" />
              <mxPoint x="120" y="500" />
            </Array>
          </mxGeometry>
        </mxCell>
        <mxCell id="oqTFkCxVo-Yx_gstU844-35" value="&lt;font style=&quot;font-size: 8px;&quot;&gt;chargeTaken&lt;/font&gt;" style="edgeLabel;html=1;align=center;verticalAlign=middle;resizable=0;points=[];" vertex="1" connectable="0" parent="oqTFkCxVo-Yx_gstU844-25">
          <mxGeometry x="-0.7967" y="-3" relative="1" as="geometry">
            <mxPoint as="offset" />
          </mxGeometry>
        </mxCell>
        <mxCell id="oqTFkCxVo-Yx_gstU844-34" style="edgeStyle=orthogonalEdgeStyle;rounded=0;orthogonalLoop=1;jettySize=auto;html=1;entryX=0.5;entryY=1;entryDx=0;entryDy=0;" edge="1" parent="1" source="oqTFkCxVo-Yx_gstU844-11" target="oqTFkCxVo-Yx_gstU844-31">
          <mxGeometry relative="1" as="geometry">
            <mxPoint x="560" y="350" as="targetPoint" />
          </mxGeometry>
        </mxCell>
        <mxCell id="oqTFkCxVo-Yx_gstU844-38" value="&lt;font style=&quot;font-size: 7px;&quot;&gt;After 60 seconds if there was no answer&lt;/font&gt;" style="edgeLabel;html=1;align=center;verticalAlign=middle;resizable=0;points=[];" vertex="1" connectable="0" parent="oqTFkCxVo-Yx_gstU844-34">
          <mxGeometry x="-0.5124" y="-2" relative="1" as="geometry">
            <mxPoint x="37" y="-57" as="offset" />
          </mxGeometry>
        </mxCell>
        <mxCell id="oqTFkCxVo-Yx_gstU844-11" value="SendDeposit" style="rounded=1;whiteSpace=wrap;html=1;" vertex="1" parent="1">
          <mxGeometry x="440" y="440" width="80" height="30" as="geometry" />
        </mxCell>
        <mxCell id="oqTFkCxVo-Yx_gstU844-39" style="edgeStyle=orthogonalEdgeStyle;rounded=0;orthogonalLoop=1;jettySize=auto;html=1;entryX=0.5;entryY=0;entryDx=0;entryDy=0;" edge="1" parent="1" source="oqTFkCxVo-Yx_gstU844-31" target="oqTFkCxVo-Yx_gstU844-3">
          <mxGeometry relative="1" as="geometry">
            <Array as="points">
              <mxPoint x="680" y="315" />
              <mxPoint x="680" y="155" />
              <mxPoint x="160" y="155" />
            </Array>
          </mxGeometry>
        </mxCell>
        <mxCell id="oqTFkCxVo-Yx_gstU844-31" value="&lt;div&gt;HandleError&lt;/div&gt;" style="rounded=1;whiteSpace=wrap;html=1;" vertex="1" parent="1">
          <mxGeometry x="570" y="300" width="80" height="30" as="geometry" />
        </mxCell>
      </root>
    </mxGraphModel>
  </diagram>
</mxfile>
